<svg width="19" height="19" viewBox="0 0 19 19" fill="none" xmlns="http://www.w3.org/2000/svg">
<path d="M9.49698 1.56219C9.51374 1.75181 9.45459 1.94035 9.33251 2.08642C9.21043 2.23249 9.03538 2.32416 8.84579 2.34131C7.48576 2.46581 6.18935 2.97522 5.10837 3.80989C4.02739 4.64455 3.20658 5.76991 2.74206 7.05421C2.27754 8.3385 2.18854 9.72855 2.48547 11.0616C2.78241 12.3946 3.45299 13.6155 4.4187 14.5812C5.38441 15.5469 6.60527 16.2175 7.93831 16.5144C9.27136 16.8114 10.6614 16.7224 11.9457 16.2579C13.23 15.7933 14.3554 14.9725 15.19 13.8915C16.0247 12.8106 16.5341 11.5142 16.6586 10.1541C16.6758 9.96426 16.7676 9.78899 16.914 9.66687C16.9865 9.6064 17.0702 9.5608 17.1603 9.53267C17.2504 9.50454 17.3452 9.49444 17.4392 9.50293C17.5332 9.51143 17.6246 9.53836 17.7082 9.58218C17.7918 9.62601 17.8659 9.68587 17.9264 9.75835C17.9869 9.83083 18.0325 9.91451 18.0606 10.0046C18.0887 10.0947 18.0988 10.1895 18.0904 10.2835C17.9415 11.9159 17.3306 13.472 16.3292 14.7697C15.3278 16.0673 13.9774 17.0528 12.4361 17.6106C10.8948 18.1684 9.22644 18.2754 7.62649 17.9192C6.02654 17.563 4.56122 16.7582 3.40218 15.5992C2.24314 14.4401 1.43837 12.9748 1.08213 11.3749C0.7259 9.77491 0.832951 8.10657 1.39075 6.56527C1.94855 5.02397 2.934 3.67352 4.23167 2.67212C5.52934 1.67072 7.08549 1.05983 8.71785 0.910998C8.90748 0.894232 9.09601 0.953381 9.24208 1.07546C9.38815 1.19755 9.47982 1.37259 9.49698 1.56219ZM8.7811 5.18756C8.97173 5.18756 9.15454 5.26329 9.28933 5.39808C9.42413 5.53287 9.49985 5.71569 9.49985 5.90631V9.50006H11.6561C11.8467 9.50006 12.0295 9.57578 12.1643 9.71058C12.2991 9.84537 12.3749 10.0282 12.3749 10.2188C12.3749 10.4094 12.2991 10.5923 12.1643 10.727C12.0295 10.8618 11.8467 10.9376 11.6561 10.9376H8.7811C8.59048 10.9376 8.40766 10.8618 8.27287 10.727C8.13808 10.5923 8.06235 10.4094 8.06235 10.2188V5.90631C8.06235 5.71569 8.13808 5.53287 8.27287 5.39808C8.40766 5.26329 8.59048 5.18756 8.7811 5.18756ZM11.8516 1.19994C11.76 1.17166 11.6637 1.16199 11.5684 1.17148C11.473 1.18097 11.3805 1.20944 11.2963 1.25521C11.2121 1.30097 11.1379 1.36312 11.0781 1.43798C11.0183 1.51285 10.974 1.59892 10.9479 1.69114C10.9219 1.78336 10.9145 1.87986 10.9263 1.97497C10.938 2.07008 10.9687 2.16187 11.0165 2.24495C11.0642 2.32803 11.1281 2.40072 11.2044 2.45875C11.2807 2.51677 11.3678 2.55895 11.4606 2.58281C12.2469 2.80562 12.98 3.15781 13.6327 3.61781C13.7886 3.72152 13.9788 3.76029 14.1629 3.72587C14.3469 3.69145 14.5103 3.58656 14.6182 3.43352C14.7261 3.28048 14.77 3.09137 14.7406 2.90645C14.7111 2.72152 14.6107 2.55538 14.4607 2.44337C13.6674 1.88457 12.7853 1.46414 11.8516 1.19994ZM16.5565 4.53925C16.4467 4.38332 16.2795 4.27739 16.0916 4.24477C15.9037 4.21215 15.7105 4.25551 15.5546 4.36531C15.3987 4.47511 15.2927 4.64236 15.2601 4.83025C15.244 4.92329 15.2463 5.0186 15.267 5.11074C15.2877 5.20288 15.3263 5.29004 15.3807 5.36725C15.8407 6.01987 16.1943 6.753 16.4157 7.53931C16.4413 7.63021 16.4847 7.71515 16.5432 7.7893C16.6017 7.86346 16.6742 7.92536 16.7566 7.97148C16.8391 8.0176 16.9298 8.04703 17.0236 8.05809C17.1174 8.06916 17.2124 8.06164 17.3033 8.03597C17.3942 8.01029 17.4792 7.96697 17.5533 7.90846C17.6275 7.84996 17.6894 7.77743 17.7355 7.695C17.7816 7.61257 17.811 7.52187 17.8221 7.42807C17.8332 7.33427 17.8256 7.2392 17.8 7.14831C17.5358 6.21465 17.1154 5.33248 16.5565 4.53925Z" fill="#424242"/>
</svg>
