<svg width="19" height="21" viewBox="0 0 19 21" fill="none" xmlns="http://www.w3.org/2000/svg">
<path d="M3.43945 8.451C3.43891 7.20436 3.82669 5.9885 4.54891 4.97237C5.27113 3.95625 6.29192 3.19031 7.46945 2.781C7.42385 2.49531 7.44078 2.20312 7.51906 1.92461C7.59733 1.6461 7.7351 1.38788 7.92286 1.16778C8.11062 0.947673 8.34389 0.770924 8.60659 0.649724C8.86928 0.528524 9.15515 0.465759 9.44445 0.465759C9.73376 0.465759 10.0196 0.528524 10.2823 0.649724C10.545 0.770924 10.7783 0.947673 10.966 1.16778C11.1538 1.38788 11.2916 1.6461 11.3699 1.92461C11.4481 2.20312 11.4651 2.49531 11.4195 2.781C12.5951 3.19199 13.6137 3.95864 14.3341 4.97462C15.0544 5.99061 15.4407 7.20557 15.4395 8.451V14.451L18.4395 16.451V17.451H0.439453V16.451L3.43945 14.451V8.451ZM11.4395 18.451C11.4395 18.9814 11.2287 19.4901 10.8537 19.8652C10.4786 20.2403 9.96989 20.451 9.43945 20.451C8.90902 20.451 8.40031 20.2403 8.02524 19.8652C7.65017 19.4901 7.43945 18.9814 7.43945 18.451H11.4395Z" fill="#424242"/>
</svg>
