<svg width="26" height="24" viewBox="0 0 26 24" fill="none" xmlns="http://www.w3.org/2000/svg">
<path d="M18.8467 0.00720215H6.34668C2.59668 0.00720215 0.0966797 2.5072 0.0966797 6.2572V13.7572C0.0966797 17.5072 2.59668 20.0072 6.34668 20.0072H11.3467L16.9092 23.7072C17.0969 23.8323 17.3151 23.9042 17.5404 23.915C17.7658 23.9259 17.9898 23.8754 18.1887 23.7689C18.3876 23.6624 18.5539 23.5039 18.6698 23.3103C18.7856 23.1167 18.8468 22.8953 18.8467 22.6697V20.0072C22.5967 20.0072 25.0967 17.5072 25.0967 13.7572V6.2572C25.0967 2.5072 22.5967 0.00720215 18.8467 0.00720215ZM16.9717 11.0322H8.22168C7.70918 11.0322 7.28418 10.6072 7.28418 10.0947C7.28418 9.5822 7.70918 9.1572 8.22168 9.1572H16.9717C17.4842 9.1572 17.9092 9.5822 17.9092 10.0947C17.9092 10.6072 17.4842 11.0322 16.9717 11.0322Z" fill="#424242"/>
</svg>
