<svg width="16" height="16" viewBox="0 0 16 16" fill="none" xmlns="http://www.w3.org/2000/svg">
<path d="M11.3299 0.0141144H4.69577C1.81411 0.0141144 0.0961914 1.73203 0.0961914 4.6137V11.2479C0.0961914 12.1108 0.246608 12.8629 0.539525 13.4962C1.22036 15.0004 2.67702 15.8474 4.69577 15.8474H11.3299C14.2116 15.8474 15.9295 14.1295 15.9295 11.2479V4.6137C15.9295 1.73203 14.2116 0.0141144 11.3299 0.0141144ZM14.6391 8.32661C14.0216 7.7962 13.0241 7.7962 12.4066 8.32661L9.11327 11.1529C8.49577 11.6833 7.49827 11.6833 6.88077 11.1529L6.61161 10.9312C6.04952 10.4404 5.15494 10.3929 4.52161 10.8204L1.56077 12.8074C1.38661 12.3641 1.28369 11.8495 1.28369 11.2479V4.6137C1.28369 2.3812 2.46327 1.20161 4.69577 1.20161H11.3299C13.5624 1.20161 14.742 2.3812 14.742 4.6137V8.4137L14.6391 8.32661Z" fill="#474747"/>
</svg>
