<svg width="23" height="23" viewBox="0 0 23 23" fill="none" xmlns="http://www.w3.org/2000/svg">
<g clip-path="url(#clip0_251_156)">
<path d="M22.0978 16.2737C22.0902 17.6099 21.6864 18.9138 20.9375 20.0205C20.1887 21.1271 19.1284 21.9868 17.8908 22.4907C16.6532 22.9946 15.2939 23.1201 13.985 22.8513C12.6761 22.5825 11.4763 21.9316 10.5374 20.9807C9.59856 20.0299 8.96284 18.822 8.7107 17.5098C8.45855 16.1976 8.60131 14.8401 9.12091 13.6091C9.64051 12.3781 10.5136 11.3288 11.6297 10.5941C12.7458 9.85937 14.0548 9.4722 15.391 9.48158C19.1002 9.49183 22.0987 12.5265 22.0978 16.2737ZM14.6104 12.0133C14.6104 13.6247 14.6104 15.2054 14.6169 16.786C14.6197 16.8452 14.6347 16.9032 14.6608 16.9564C14.6869 17.0096 14.7237 17.0569 14.7688 17.0953C15.7003 17.7296 16.6383 18.349 17.6024 18.9917L18.3476 17.697C17.7887 17.3095 17.281 16.895 16.7156 16.5793C16.207 16.2998 16.0812 15.9272 16.1008 15.3786C16.1409 14.2665 16.1129 13.1515 16.1129 12.0123L14.6104 12.0133Z" fill="#535353"/>
<path d="M7.73596 19.4817H4.13574V5.48005H5.1017C5.1017 4.8448 5.1017 4.25892 5.1017 3.6721C5.11474 1.9871 6.11889 0.988583 7.80303 0.988583C9.05961 0.988583 10.3181 0.982994 11.5728 0.988583C13.0119 0.997898 14.0673 2.04299 14.0878 3.47556C14.0971 4.12758 14.0878 4.77122 14.0878 5.46515H15.0715V7.9512C9.19375 8.30794 5.57769 14.083 7.73596 19.4817ZM7.12118 2.99121V5.43534H12.0702V2.99121H7.12118Z" fill="#535353"/>
<path d="M2.57543 19.4882C2.17395 19.4882 1.81719 19.5208 1.46695 19.4817C0.619292 19.3867 0.0976562 18.7989 0.0976562 17.9457C0.0976562 14.3143 0.0976562 10.6825 0.0976562 7.05049C0.0976562 6.10506 0.726414 5.49124 1.68119 5.47726C1.97182 5.47726 2.26245 5.47726 2.57636 5.47726L2.57543 19.4882Z" fill="#535353"/>
<path d="M16.6176 5.48564C17.0219 5.48564 17.3926 5.45584 17.7568 5.49216C18.0836 5.52515 18.3905 5.66435 18.6306 5.88844C18.8707 6.11254 19.0307 6.40916 19.0861 6.73286C19.1032 6.85627 19.1095 6.98094 19.1047 7.10544C19.1047 7.6727 19.1047 8.23902 19.1047 8.8128L16.6167 8.0164L16.6176 5.48564Z" fill="#535353"/>
</g>
<defs>
<clipPath id="clip0_251_156">
<rect width="22" height="22" fill="white" transform="translate(0.0976562 0.988586)"/>
</clipPath>
</defs>
</svg>
