<svg width="21" height="21" viewBox="0 0 21 21" fill="none" xmlns="http://www.w3.org/2000/svg">
<path d="M10.9443 0.211914C5.43434 0.211914 0.944336 4.70191 0.944336 10.2119C0.944336 15.7219 5.43434 20.2119 10.9443 20.2119C16.4543 20.2119 20.9443 15.7219 20.9443 10.2119C20.9443 4.70191 16.4543 0.211914 10.9443 0.211914ZM14.9443 10.9619H11.6943V14.2119C11.6943 14.6219 11.3543 14.9619 10.9443 14.9619C10.5343 14.9619 10.1943 14.6219 10.1943 14.2119V10.9619H6.94434C6.53434 10.9619 6.19434 10.6219 6.19434 10.2119C6.19434 9.80191 6.53434 9.46191 6.94434 9.46191H10.1943V6.21191C10.1943 5.80191 10.5343 5.46191 10.9443 5.46191C11.3543 5.46191 11.6943 5.80191 11.6943 6.21191V9.46191H14.9443C15.3543 9.46191 15.6943 9.80191 15.6943 10.2119C15.6943 10.6219 15.3543 10.9619 14.9443 10.9619Z" fill="#0266FF"/>
</svg>
