<svg width="77" height="77" viewBox="0 0 77 77" fill="none" xmlns="http://www.w3.org/2000/svg">
<path d="M38.8786 0.39505C48.963 0.39505 58.6343 4.40105 65.765 11.5318C72.8957 18.6625 76.9017 28.3338 76.9017 38.4182C76.9017 48.5025 72.8957 58.1739 65.765 65.3046C58.6343 72.4353 48.963 76.4413 38.8786 76.4413C28.7942 76.4413 19.1229 72.4353 11.9922 65.3046C4.86147 58.1739 0.855469 48.5025 0.855469 38.4182C0.855469 28.3338 4.86147 18.6625 11.9922 11.5318C19.1229 4.40105 28.7942 0.39505 38.8786 0.39505ZM38.8786 71.0094C47.5223 71.0094 55.8121 67.5757 61.9241 61.4637C68.0361 55.3516 71.4699 47.0619 71.4699 38.4182C71.4699 29.7744 68.0361 21.4847 61.9241 15.3727C55.8121 9.26064 47.5223 5.82693 38.8786 5.82693C30.2349 5.82693 21.9451 9.26064 15.8331 15.3727C9.72106 21.4847 6.28734 29.7744 6.28734 38.4182C6.28734 47.0619 9.72106 55.3516 15.8331 61.4637C21.9451 67.5757 30.2349 71.0094 38.8786 71.0094ZM35.7064 20.9112L56.8798 35.0287C57.4378 35.4007 57.8953 35.9048 58.2117 36.496C58.5281 37.0873 58.6936 37.7476 58.6936 38.4182C58.6936 39.0888 58.5281 39.7491 58.2117 40.3403C57.8953 40.9316 57.4378 41.4356 56.8798 41.8077L35.7064 55.9251C35.0929 56.3341 34.3799 56.5689 33.6434 56.6045C32.9069 56.6401 32.1746 56.4751 31.5245 56.1272C30.8744 55.7793 30.3309 55.2615 29.952 54.629C29.573 53.9965 29.3729 53.273 29.3728 52.5356V24.2953C29.3729 23.558 29.573 22.8345 29.952 22.202C30.3309 21.5694 30.8744 21.0516 31.5245 20.7037C32.1746 20.3558 32.9069 20.1909 33.6434 20.2264C34.3799 20.262 35.0929 20.4968 35.7064 20.9058V20.9112Z" fill="white"/>
</svg>
