<svg width="23" height="22" viewBox="0 0 23 22" fill="none" xmlns="http://www.w3.org/2000/svg">
<path d="M11.4089 21.6859C10.6997 21.6859 10.0316 21.3359 9.55875 20.7259L8.01695 18.7259C7.95763 18.6713 7.88209 18.6363 7.8011 18.6259H7.29745C3.01126 18.6259 0.359375 17.4959 0.359375 11.8759V6.87595C0.359375 2.45595 2.7543 0.125946 7.29745 0.125946H13.4646C13.8861 0.125946 14.2355 0.465946 14.2355 0.875946C14.2355 1.28595 13.8861 1.62595 13.4646 1.62595H7.29745C3.6177 1.62595 1.90117 3.29595 1.90117 6.87595V11.8759C1.90117 16.3959 3.49436 17.1259 7.29745 17.1259H7.81138C8.33559 17.1259 8.93175 17.4159 9.25039 17.8259L10.7922 19.8259C11.1519 20.2859 11.6659 20.2859 12.0256 19.8259L13.5674 17.8259C13.9066 17.3859 14.4411 17.1259 15.0064 17.1259H15.5204C19.2001 17.1259 20.9166 15.4559 20.9166 11.8759V8.87595C20.9166 8.46595 21.2661 8.12595 21.6875 8.12595C22.109 8.12595 22.4584 8.46595 22.4584 8.87595V11.8759C22.4584 16.2959 20.0635 18.6259 15.5204 18.6259H15.0064C14.9242 18.6259 14.8522 18.6659 14.8008 18.7259L13.2591 20.7259C12.7862 21.3359 12.1181 21.6859 11.4089 21.6859Z" fill="#838383"/>
</svg>
