<svg width="21" height="21" viewBox="0 0 21 21" fill="none" xmlns="http://www.w3.org/2000/svg">
<path d="M11.1992 9.45093V5.45093H9.19922V9.45093H5.19922V11.4509H9.19922V15.4509H11.1992V11.4509H15.1992V9.45093H11.1992ZM10.1992 20.4509C7.54705 20.4509 5.00351 19.3974 3.12815 17.522C1.25279 15.6466 0.199219 13.1031 0.199219 10.4509C0.199219 7.79876 1.25279 5.25522 3.12815 3.37986C5.00351 1.5045 7.54705 0.450928 10.1992 0.450928C12.8514 0.450928 15.3949 1.5045 17.2703 3.37986C19.1457 5.25522 20.1992 7.79876 20.1992 10.4509C20.1992 13.1031 19.1457 15.6466 17.2703 17.522C15.3949 19.3974 12.8514 20.4509 10.1992 20.4509Z" fill="#F5F5F5"/>
</svg>
