<svg width="25" height="19" viewBox="0 0 25 19" fill="none" xmlns="http://www.w3.org/2000/svg">
<path d="M20.8467 2.43573C21.0456 2.43573 21.2364 2.51475 21.377 2.6554C21.5177 2.79605 21.5967 2.98682 21.5967 3.18573V14.4357H3.59668V3.18573C3.59668 2.98682 3.6757 2.79605 3.81635 2.6554C3.957 2.51475 4.14777 2.43573 4.34668 2.43573H20.8467ZM4.34668 0.93573C3.74994 0.93573 3.17765 1.17278 2.75569 1.59474C2.33373 2.0167 2.09668 2.58899 2.09668 3.18573V15.9357H23.0967V3.18573C23.0967 2.58899 22.8596 2.0167 22.4377 1.59474C22.0157 1.17278 21.4434 0.93573 20.8467 0.93573H4.34668ZM0.59668 16.6857H24.5967C24.5967 17.2825 24.3596 17.8548 23.9377 18.2767C23.5157 18.6987 22.9434 18.9357 22.3467 18.9357H2.84668C2.24994 18.9357 1.67765 18.6987 1.25569 18.2767C0.833733 17.8548 0.59668 17.2825 0.59668 16.6857Z" fill="#535353"/>
</svg>
