<svg width="25" height="19" viewBox="0 0 25 19" fill="none" xmlns="http://www.w3.org/2000/svg">
<path d="M20.2734 1.65286C20.4723 1.65286 20.6631 1.73188 20.8038 1.87253C20.9444 2.01318 21.0234 2.20395 21.0234 2.40286V13.6529H3.02344V2.40286C3.02344 2.20395 3.10246 2.01318 3.24311 1.87253C3.38376 1.73188 3.57453 1.65286 3.77344 1.65286H20.2734ZM3.77344 0.152863C3.1767 0.152863 2.6044 0.389916 2.18245 0.811872C1.76049 1.23383 1.52344 1.80613 1.52344 2.40286V15.1529H22.5234V2.40286C22.5234 1.80613 22.2864 1.23383 21.8644 0.811872C21.4425 0.389916 20.8702 0.152863 20.2734 0.152863H3.77344ZM0.0234375 15.9029H24.0234C24.0234 16.4996 23.7864 17.0719 23.3644 17.4939C22.9425 17.9158 22.3702 18.1529 21.7734 18.1529H2.27344C1.6767 18.1529 1.1044 17.9158 0.682447 17.4939C0.26049 17.0719 0.0234375 16.4996 0.0234375 15.9029Z" fill="white"/>
</svg>
