<svg width="19" height="18" viewBox="0 0 19 18" fill="none" xmlns="http://www.w3.org/2000/svg">
<path d="M9.60938 0.290207C4.78812 0.290207 0.859375 4.21896 0.859375 9.04021C0.859375 13.8615 4.78812 17.7902 9.60938 17.7902C14.4306 17.7902 18.3594 13.8615 18.3594 9.04021C18.3594 4.21896 14.4306 0.290207 9.60938 0.290207ZM13.7919 7.02771L8.83062 11.989C8.70758 12.1119 8.54078 12.1809 8.36687 12.1809C8.19297 12.1809 8.02617 12.1119 7.90313 11.989L5.42687 9.51271C5.30483 9.38921 5.23639 9.22258 5.23639 9.04896C5.23639 8.87533 5.30483 8.7087 5.42687 8.58521C5.68062 8.33146 6.10062 8.33146 6.35437 8.58521L8.36687 10.5977L12.8644 6.10021C13.1181 5.84646 13.5381 5.84646 13.7919 6.10021C14.0456 6.35396 14.0456 6.76521 13.7919 7.02771Z" fill="#21252C"/>
</svg>
