<svg width="18" height="20" viewBox="0 0 18 20" fill="none" xmlns="http://www.w3.org/2000/svg">
<path d="M13.4635 2.75019V1.32019C13.4635 0.944357 13.1519 0.63269 12.776 0.63269C12.4002 0.63269 12.0885 0.944357 12.0885 1.32019V2.69519H6.13021V1.32019C6.13021 0.944357 5.81854 0.63269 5.44271 0.63269C5.06687 0.63269 4.75521 0.944357 4.75521 1.32019V2.75019C2.28021 2.97936 1.07937 4.45519 0.896042 6.64602C0.877708 6.91186 1.09771 7.13186 1.35437 7.13186H16.8644C17.1302 7.13186 17.3502 6.90269 17.3227 6.64602C17.1394 4.45519 15.9385 2.97936 13.4635 2.75019ZM16.4427 8.50686H1.77604C1.27187 8.50686 0.859375 8.91936 0.859375 9.42352V15.0702C0.859375 17.8202 2.23438 19.6535 5.44271 19.6535H12.776C15.9844 19.6535 17.3594 17.8202 17.3594 15.0702V9.42352C17.3594 8.91936 16.9469 8.50686 16.4427 8.50686ZM11.7127 13.2277L11.2544 13.6952H11.2452L8.46771 16.4727C8.34854 16.5919 8.10104 16.7202 7.92688 16.7385L6.68937 16.9219C6.24021 16.986 5.92854 16.6652 5.99271 16.2252L6.16687 14.9785C6.19438 14.8044 6.31354 14.566 6.43271 14.4377L9.21937 11.6602L9.67771 11.1927C9.98021 10.8902 10.3194 10.6702 10.686 10.6702C10.9977 10.6702 11.3369 10.8169 11.7127 11.1927C12.5377 12.0177 12.2719 12.6685 11.7127 13.2277Z" fill="#21252C"/>
</svg>
