<svg width="19" height="19" viewBox="0 0 19 19" fill="none" xmlns="http://www.w3.org/2000/svg">
<path d="M18.1085 8.03857L16.1543 7.45524C16.0192 6.98351 15.8334 6.52779 15.6001 6.09607L16.5568 4.30524C16.5927 4.23764 16.6058 4.16027 16.5943 4.08461C16.5827 4.00895 16.5471 3.93904 16.4926 3.88524L15.0985 2.48524C15.0447 2.4308 14.9748 2.39515 14.8991 2.38359C14.8234 2.37203 14.7461 2.38518 14.6785 2.42107L12.8993 3.37191C12.4633 3.12729 12.0016 2.93166 11.5226 2.78857L10.9393 0.857741C10.9146 0.786583 10.868 0.72509 10.8062 0.682112C10.7443 0.639133 10.6704 0.616887 10.5951 0.618574H8.62346C8.54771 0.618927 8.47405 0.643444 8.4132 0.688558C8.35235 0.733672 8.30748 0.797029 8.28513 0.869407L7.7018 2.79441C7.2188 2.93673 6.75316 3.13238 6.31346 3.37774L4.56346 2.43274C4.49587 2.39684 4.4185 2.3837 4.34284 2.39526C4.26718 2.40682 4.19726 2.44246 4.14346 2.49691L2.72596 3.87941C2.67152 3.9332 2.63587 4.00312 2.62431 4.07878C2.61276 4.15444 2.6259 4.23181 2.6618 4.29941L3.6068 6.04941C3.36183 6.48725 3.16619 6.95092 3.02346 7.43191L1.09263 8.01524C1.02025 8.03759 0.956895 8.08246 0.911781 8.14331C0.866667 8.20416 0.84215 8.27782 0.841797 8.35357V10.3252C0.84215 10.401 0.866667 10.4747 0.911781 10.5355C0.956895 10.5964 1.02025 10.6412 1.09263 10.6636L3.03513 11.2469C3.17942 11.7199 3.37502 12.1757 3.61846 12.6061L2.6618 14.4377C2.6259 14.5053 2.61276 14.5827 2.62431 14.6584C2.63587 14.734 2.67152 14.8039 2.72596 14.8577L4.12013 16.2519C4.17393 16.3064 4.24384 16.342 4.3195 16.3536C4.39516 16.3651 4.47253 16.352 4.54013 16.3161L6.34263 15.3536C6.76903 15.5837 7.21881 15.7675 7.6843 15.9019L8.26763 17.8677C8.28998 17.9401 8.33485 18.0035 8.3957 18.0486C8.45655 18.0937 8.53021 18.1182 8.60596 18.1186H10.5776C10.6534 18.1182 10.727 18.0937 10.7879 18.0486C10.8487 18.0035 10.8936 17.9401 10.916 17.8677L11.4993 15.8961C11.9608 15.761 12.4067 15.5771 12.8293 15.3477L14.6435 16.3161C14.7111 16.352 14.7884 16.3651 14.8641 16.3536C14.9398 16.342 15.0097 16.3064 15.0635 16.2519L16.4576 14.8577C16.5121 14.8039 16.5477 14.734 16.5593 14.6584C16.5708 14.5827 16.5577 14.5053 16.5218 14.4377L15.5535 12.6294C15.7853 12.2051 15.971 11.7573 16.1076 11.2936L18.0735 10.7102C18.1458 10.6879 18.2092 10.643 18.2543 10.5822C18.2994 10.5213 18.3239 10.4477 18.3243 10.3719V8.38274C18.3277 8.3102 18.3089 8.23835 18.2703 8.17683C18.2317 8.11531 18.1753 8.06706 18.1085 8.03857ZM9.6093 12.5769C8.97475 12.5769 8.35445 12.3887 7.82684 12.0362C7.29923 11.6837 6.88801 11.1826 6.64518 10.5964C6.40235 10.0101 6.33882 9.36502 6.46261 8.74266C6.5864 8.1203 6.89197 7.54863 7.34066 7.09994C7.78936 6.65125 8.36103 6.34568 8.98338 6.22189C9.60574 6.09809 10.2508 6.16163 10.8371 6.40446C11.4233 6.64729 11.9244 7.05851 12.2769 7.58612C12.6295 8.11373 12.8176 8.73403 12.8176 9.36858C12.8176 10.2195 12.4796 11.0355 11.8779 11.6372C11.2763 12.2389 10.4602 12.5769 9.6093 12.5769Z" fill="#21252C"/>
</svg>
