<svg width="20" height="6" viewBox="0 0 20 6" fill="none" xmlns="http://www.w3.org/2000/svg">
<path d="M3.0127 5.86719C1.4927 5.86719 0.262695 4.63719 0.262695 3.11719C0.262695 1.59719 1.4927 0.367188 3.0127 0.367188C4.5327 0.367188 5.7627 1.59719 5.7627 3.11719C5.7627 4.63719 4.5327 5.86719 3.0127 5.86719ZM3.0127 1.86719C2.68117 1.86719 2.36323 1.99888 2.12881 2.2333C1.89439 2.46772 1.7627 2.78567 1.7627 3.11719C1.7627 3.44871 1.89439 3.76665 2.12881 4.00107C2.36323 4.23549 2.68117 4.36719 3.0127 4.36719C3.34422 4.36719 3.66216 4.23549 3.89658 4.00107C4.131 3.76665 4.2627 3.44871 4.2627 3.11719C4.2627 2.78567 4.131 2.46772 3.89658 2.2333C3.66216 1.99888 3.34422 1.86719 3.0127 1.86719ZM17.0127 5.86719C15.4927 5.86719 14.2627 4.63719 14.2627 3.11719C14.2627 1.59719 15.4927 0.367188 17.0127 0.367188C18.5327 0.367188 19.7627 1.59719 19.7627 3.11719C19.7627 4.63719 18.5327 5.86719 17.0127 5.86719ZM17.0127 1.86719C16.6812 1.86719 16.3632 1.99888 16.1288 2.2333C15.8944 2.46772 15.7627 2.78567 15.7627 3.11719C15.7627 3.44871 15.8944 3.76665 16.1288 4.00107C16.3632 4.23549 16.6812 4.36719 17.0127 4.36719C17.3442 4.36719 17.6622 4.23549 17.8966 4.00107C18.131 3.76665 18.2627 3.44871 18.2627 3.11719C18.2627 2.78567 18.131 2.46772 17.8966 2.2333C17.6622 1.99888 17.3442 1.86719 17.0127 1.86719ZM10.0127 5.86719C8.49269 5.86719 7.2627 4.63719 7.2627 3.11719C7.2627 1.59719 8.49269 0.367188 10.0127 0.367188C11.5327 0.367188 12.7627 1.59719 12.7627 3.11719C12.7627 4.63719 11.5327 5.86719 10.0127 5.86719ZM10.0127 1.86719C9.68117 1.86719 9.36323 1.99888 9.12881 2.2333C8.89439 2.46772 8.7627 2.78567 8.7627 3.11719C8.7627 3.44871 8.89439 3.76665 9.12881 4.00107C9.36323 4.23549 9.68117 4.36719 10.0127 4.36719C10.3442 4.36719 10.6622 4.23549 10.8966 4.00107C11.131 3.76665 11.2627 3.44871 11.2627 3.11719C11.2627 2.78567 11.131 2.46772 10.8966 2.2333C10.6622 1.99888 10.3442 1.86719 10.0127 1.86719Z" fill="#838383"/>
</svg>
