<svg width="18" height="18" viewBox="0 0 18 18" fill="none" xmlns="http://www.w3.org/2000/svg">
<path d="M0.46875 14.8332C0.46875 16.2498 1.55208 17.3332 2.96875 17.3332H14.6354C16.0521 17.3332 17.1354 16.2498 17.1354 14.8332V8.1665H0.46875V14.8332ZM14.6354 2.33317H12.9687V1.49984C12.9687 0.999837 12.6354 0.666504 12.1354 0.666504C11.6354 0.666504 11.3021 0.999837 11.3021 1.49984V2.33317H6.30208V1.49984C6.30208 0.999837 5.96875 0.666504 5.46875 0.666504C4.96875 0.666504 4.63542 0.999837 4.63542 1.49984V2.33317H2.96875C1.55208 2.33317 0.46875 3.4165 0.46875 4.83317V6.49984H17.1354V4.83317C17.1354 3.4165 16.0521 2.33317 14.6354 2.33317Z" fill="#424242"/>
</svg>
