<svg width="18" height="17" viewBox="0 0 18 17" fill="none" xmlns="http://www.w3.org/2000/svg">
<path d="M0.679688 14.254C0.679688 15.6707 1.76302 16.754 3.17969 16.754H14.8464C16.263 16.754 17.3464 15.6707 17.3464 14.254V7.58737H0.679688V14.254ZM14.8464 1.75404H13.1797V0.920705C13.1797 0.420705 12.8464 0.0873718 12.3464 0.0873718C11.8464 0.0873718 11.513 0.420705 11.513 0.920705V1.75404H6.51302V0.920705C6.51302 0.420705 6.17969 0.0873718 5.67969 0.0873718C5.17969 0.0873718 4.84635 0.420705 4.84635 0.920705V1.75404H3.17969C1.76302 1.75404 0.679688 2.83737 0.679688 4.25404V5.9207H17.3464V4.25404C17.3464 2.83737 16.263 1.75404 14.8464 1.75404Z" fill="white"/>
</svg>
