<svg width="17" height="14" viewBox="0 0 17 14" fill="none" xmlns="http://www.w3.org/2000/svg">
<path d="M15.9736 2.31537C15.649 2.14121 14.9681 1.95912 14.0419 2.60829L12.8781 3.43162C12.7911 0.969541 11.7223 0.00370789 9.12565 0.00370789H4.37565C1.66815 0.00370789 0.615234 1.05662 0.615234 3.76412V10.0975C0.615234 11.9183 1.60482 13.8579 4.37565 13.8579H9.12565C11.7223 13.8579 12.7911 12.892 12.8781 10.43L14.0419 11.2533C14.5327 11.6016 14.9602 11.7125 15.3006 11.7125C15.5936 11.7125 15.8231 11.6254 15.9736 11.5462C16.2982 11.38 16.8444 10.9287 16.8444 9.79663V4.06496C16.8444 2.93287 16.2982 2.48162 15.9736 2.31537ZM7.93815 6.43996C7.12273 6.43996 6.44982 5.77496 6.44982 4.95162C6.44982 4.12829 7.12273 3.46329 7.93815 3.46329C8.75357 3.46329 9.42648 4.12829 9.42648 4.95162C9.42648 5.77496 8.75357 6.43996 7.93815 6.43996Z" fill="#474747"/>
</svg>
